<svg xmlns="http://www.w3.org/2000/svg" xmlns:xlink="http://www.w3.org/1999/xlink"><symbol id="icons-instagram" viewBox="0 0 40 40"><path fill="#8585cc" d="M30.5,38.5c4.418,0,8-3.582,8-8v-21c0-4.418-3.582-8-8-8h-21c-4.418,0-8,3.582-8,8v21 c0,4.418,3.582,8,8,8H30.5z"/><path fill="#8d8dd8" d="M3.4,4.331C2.217,5.726,1.5,7.528,1.5,9.5v21c0,4.418,3.582,8,8,8h21c4.418,0,8-3.582,8-8v-21 c0-0.503-0.052-0.992-0.141-1.469C32.135,4.22,24.832,2,17,2C12.229,2,7.657,2.832,3.4,4.331z"/><path fill="#bd82f4" d="M1.505,9.404C1.504,9.437,1.5,9.468,1.5,9.5v21c0,4.418,3.582,8,8,8h21c4.418,0,8-3.582,8-8V12.897 C32.439,8.56,25.021,6,17,6C11.465,6,6.22,7.226,1.505,9.404z"/><path fill="#ed73f4" d="M1.5,13.88V30.5c0,4.418,3.582,8,8,8h21c4.418,0,8-3.582,8-8V17.981C32.724,13.013,25.217,10,17,10 C11.394,10,6.124,11.414,1.5,13.88z"/><path fill="#f97dcd" d="M17,14c-5.705,0-11.014,1.664-15.5,4.509V30.5c0,4.418,3.582,8,8,8h21c4.418,0,8-3.582,8-8v-6.935 C33.194,17.698,25.534,14,17,14z"/><path fill="#fc9c95" d="M17,18c-5.861,0-11.237,2.033-15.5,5.411V30.5c0,4.418,3.582,8,8,8h21c4.418,0,8-3.582,8-8v-0.238 C34.143,22.925,26.152,18,17,18z"/><path fill="#ffac99" d="M17,22c-6.145,0-11.66,2.651-15.5,6.859V30.5c0,4.418,3.582,8,8,8h21c2.465,0,4.668-1.117,6.136-2.87 C33.648,27.674,25.999,22,17,22z"/><path fill="#ffc49c" d="M30.5,38.5c0.957,0,1.87-0.177,2.721-0.485C31.087,31.065,24.649,26,17,26 c-6.186,0-11.592,3.309-14.566,8.248C3.778,36.777,6.437,38.5,9.5,38.5H30.5z"/><path fill="#ffde8d" d="M17,30c-5.137,0-9.573,2.984-11.684,7.309C6.535,38.06,7.964,38.5,9.5,38.5h19.683 C27.35,33.542,22.595,30,17,30z"/><path fill="#fff69f" d="M17,34c-3.319,0-6.193,1.813-7.753,4.487C9.332,38.49,9.415,38.5,9.5,38.5h15.26 C23.203,35.818,20.324,34,17,34z"/><path fill="#8b75a1" d="M31,2c3.86,0,7,3.14,7,7v22c0,3.86-3.14,7-7,7H9c-3.86,0-7-3.14-7-7V9c0-3.86,3.14-7,7-7H31 M31,1H9 C4.582,1,1,4.582,1,9v22c0,4.418,3.582,8,8,8h22c4.418,0,8-3.582,8-8V9C39,4.582,35.418,1,31,1L31,1z"/><path fill="#fff" d="M27.5 11A1.5 1.5 0 1 0 27.5 14A1.5 1.5 0 1 0 27.5 11Z"/><path fill="none" stroke="#fff" stroke-miterlimit="10" stroke-width="2" d="M20 14A6 6 0 1 0 20 26A6 6 0 1 0 20 14Z"/><path fill="none" stroke="#fff" stroke-miterlimit="10" stroke-width="2" d="M33,14.5c0-4.142-3.358-7.5-7.5-7.5 c-2.176,0-8.824,0-11,0C10.358,7,7,10.358,7,14.5c0,2.176,0,8.824,0,11c0,4.142,3.358,7.5,7.5,7.5c2.176,0,8.824,0,11,0 c4.142,0,7.5-3.358,7.5-7.5C33,23.324,33,16.676,33,14.5z"/></symbol><symbol id="icons-telegram" viewBox="0 0 48 48"><path fill="#29b6f6" d="M24 4A20 20 0 1 0 24 44A20 20 0 1 0 24 4Z"/><path fill="#fff" d="M33.95,15l-3.746,19.126c0,0-0.161,0.874-1.245,0.874c-0.576,0-0.873-0.274-0.873-0.274l-8.114-6.733 l-3.97-2.001l-5.095-1.355c0,0-0.907-0.262-0.907-1.012c0-0.625,0.933-0.923,0.933-0.923l21.316-8.468 c-0.001-0.001,0.651-0.235,1.126-0.234C33.667,14,34,14.125,34,14.5C34,14.75,33.95,15,33.95,15z"/><path fill="#b0bec5" d="M23,30.505l-3.426,3.374c0,0-0.149,0.115-0.348,0.12c-0.069,0.002-0.143-0.009-0.219-0.043 l0.964-5.965L23,30.505z"/><path fill="#cfd8dc" d="M29.897,18.196c-0.169-0.22-0.481-0.26-0.701-0.093L16,26c0,0,2.106,5.892,2.427,6.912 c0.322,1.021,0.58,1.045,0.58,1.045l0.964-5.965l9.832-9.096C30.023,18.729,30.064,18.416,29.897,18.196z"/></symbol><symbol id="icons-tiktok" viewBox="0 0 50 50">
    <path d="M41,4H9C6.243,4,4,6.243,4,9v32c0,2.757,2.243,5,5,5h32c2.757,0,5-2.243,5-5V9C46,6.243,43.757,4,41,4z M37.006,22.323 c-0.227,0.021-0.457,0.035-0.69,0.035c-2.623,0-4.928-1.349-6.269-3.388c0,5.349,0,11.435,0,11.537c0,4.709-3.818,8.527-8.527,8.527 s-8.527-3.818-8.527-8.527s3.818-8.527,8.527-8.527c0.178,0,0.352,0.016,0.527,0.027v4.202c-0.175-0.021-0.347-0.053-0.527-0.053 c-2.404,0-4.352,1.948-4.352,4.352s1.948,4.352,4.352,4.352s4.527-1.894,4.527-4.298c0-0.095,0.042-19.594,0.042-19.594h4.016 c0.378,3.591,3.277,6.425,6.901,6.685V22.323z"/>
</symbol><symbol id="icons-viber" viewBox="0 0 48 48"><path fill="#fff" d="M24,5C21.361,5,13.33,5,8.89,9.054C6.246,11.688,5,15.494,5,21v3c0,5.506,1.246,9.312,3.921,11.976 c1.332,1.215,3.148,2.186,5.368,2.857L15,39.047v5.328C15,45,15.181,45,15.241,45c0.123,0,0.32-0.039,0.694-0.371 c0.09-0.089,0.75-0.803,3.96-4.399l0.324-0.363l0.485,0.031C21.779,39.965,22.888,40,24,40c2.639,0,10.67,0,15.11-4.055 C41.753,33.311,43,29.505,43,24v-3c0-5.506-1.246-9.312-3.921-11.976C34.67,5,26.639,5,24,5z"/><path fill="#7e57c2" d="M33.451 28.854c-1.111-.936-1.624-1.219-3.158-2.14C29.654 26.331 28.68 26 28.169 26c-.349 0-.767.267-1.023.523C26.49 27.179 26.275 28 25.125 28c-1.125 0-3.09-1.145-4.5-2.625C19.145 23.965 18 22 18 20.875c0-1.15.806-1.38 1.462-2.037C19.718 18.583 20 18.165 20 17.816c0-.511-.331-1.47-.714-2.109-.921-1.535-1.203-2.048-2.14-3.158-.317-.376-.678-.548-1.056-.549-.639-.001-1.478.316-2.046.739-.854.637-1.747 1.504-1.986 2.584-.032.147-.051.295-.057.443-.046 1.125.396 2.267.873 3.234 1.123 2.279 2.609 4.485 4.226 6.455.517.63 1.08 1.216 1.663 1.782.566.582 1.152 1.145 1.782 1.663 1.97 1.617 4.176 3.103 6.455 4.226.958.472 2.086.906 3.2.874.159-.005.318-.023.477-.058 1.08-.238 1.947-1.132 2.584-1.986.423-.568.74-1.406.739-2.046C33.999 29.532 33.827 29.171 33.451 28.854zM34 24c-.552 0-1-.448-1-1v-1c0-4.962-4.038-9-9-9-.552 0-1-.448-1-1s.448-1 1-1c6.065 0 11 4.935 11 11v1C35 23.552 34.552 24 34 24zM27.858 22c-.444 0-.85-.298-.967-.748-.274-1.051-1.094-1.872-2.141-2.142-.535-.139-.856-.684-.718-1.219.138-.534.682-.855 1.219-.718 1.748.453 3.118 1.822 3.575 3.574.139.535-.181 1.08-.715 1.22C28.026 21.989 27.941 22 27.858 22z"/><path fill="#7e57c2" d="M31,23c-0.552,0-1-0.448-1-1c0-3.188-2.494-5.818-5.678-5.986c-0.552-0.029-0.975-0.5-0.946-1.051 c0.029-0.552,0.508-0.976,1.051-0.946C28.674,14.241,32,17.748,32,22C32,22.552,31.552,23,31,23z"/><path fill="#7e57c2" d="M24,4C19.5,4,12.488,4.414,8.216,8.316C5.196,11.323,4,15.541,4,21c0,0.452-0.002,0.956,0.002,1.5 C3.998,23.043,4,23.547,4,23.999c0,5.459,1.196,9.677,4.216,12.684c1.626,1.485,3.654,2.462,5.784,3.106v4.586 C14,45.971,15.049,46,15.241,46h0.009c0.494-0.002,0.921-0.244,1.349-0.624c0.161-0.143,2.02-2.215,4.042-4.481 C21.845,40.972,22.989,41,23.999,41c0,0,0,0,0,0s0,0,0,0c4.5,0,11.511-0.415,15.784-4.317c3.019-3.006,4.216-7.225,4.216-12.684 c0-0.452,0.002-0.956-0.002-1.5c0.004-0.544,0.002-1.047,0.002-1.5c0-5.459-1.196-9.677-4.216-12.684C35.511,4.414,28.5,4,24,4z M41,23.651l0,0.348c0,4.906-1.045,8.249-3.286,10.512C33.832,38,26.437,38,23.999,38c-0.742,0-1.946-0.001-3.367-0.1 C20.237,38.344,16,43.083,16,43.083V37.22c-2.104-0.505-4.183-1.333-5.714-2.708C8.045,32.248,7,28.905,7,23.999l0-0.348 c0-0.351-0.001-0.73,0.002-1.173C6.999,22.078,6.999,21.7,7,21.348L7,21c0-4.906,1.045-8.249,3.286-10.512 C14.167,6.999,21.563,6.999,24,6.999c2.437,0,9.832,0,13.713,3.489c2.242,2.263,3.286,5.606,3.286,10.512l0,0.348 c0,0.351,0.001,0.73-0.002,1.173C41,22.922,41,23.3,41,23.651z"/></symbol><symbol id="icons-whatsapp" viewBox="0 0 48 48"><path fill="#fff" d="M4.868,43.303l2.694-9.835C5.9,30.59,5.026,27.324,5.027,23.979C5.032,13.514,13.548,5,24.014,5c5.079,0.002,9.845,1.979,13.43,5.566c3.584,3.588,5.558,8.356,5.556,13.428c-0.004,10.465-8.522,18.98-18.986,18.98c-0.001,0,0,0,0,0h-0.008c-3.177-0.001-6.3-0.798-9.073-2.311L4.868,43.303z"/><path fill="#fff" d="M4.868,43.803c-0.132,0-0.26-0.052-0.355-0.148c-0.125-0.127-0.174-0.312-0.127-0.483l2.639-9.636c-1.636-2.906-2.499-6.206-2.497-9.556C4.532,13.238,13.273,4.5,24.014,4.5c5.21,0.002,10.105,2.031,13.784,5.713c3.679,3.683,5.704,8.577,5.702,13.781c-0.004,10.741-8.746,19.48-19.486,19.48c-3.189-0.001-6.344-0.788-9.144-2.277l-9.875,2.589C4.953,43.798,4.911,43.803,4.868,43.803z"/><path fill="#cfd8dc" d="M24.014,5c5.079,0.002,9.845,1.979,13.43,5.566c3.584,3.588,5.558,8.356,5.556,13.428c-0.004,10.465-8.522,18.98-18.986,18.98h-0.008c-3.177-0.001-6.3-0.798-9.073-2.311L4.868,43.303l2.694-9.835C5.9,30.59,5.026,27.324,5.027,23.979C5.032,13.514,13.548,5,24.014,5 M24.014,42.974C24.014,42.974,24.014,42.974,24.014,42.974C24.014,42.974,24.014,42.974,24.014,42.974 M24.014,42.974C24.014,42.974,24.014,42.974,24.014,42.974C24.014,42.974,24.014,42.974,24.014,42.974 M24.014,4C24.014,4,24.014,4,24.014,4C12.998,4,4.032,12.962,4.027,23.979c-0.001,3.367,0.849,6.685,2.461,9.622l-2.585,9.439c-0.094,0.345,0.002,0.713,0.254,0.967c0.19,0.192,0.447,0.297,0.711,0.297c0.085,0,0.17-0.011,0.254-0.033l9.687-2.54c2.828,1.468,5.998,2.243,9.197,2.244c11.024,0,19.99-8.963,19.995-19.98c0.002-5.339-2.075-10.359-5.848-14.135C34.378,6.083,29.357,4.002,24.014,4L24.014,4z"/><path fill="#40c351" d="M35.176,12.832c-2.98-2.982-6.941-4.625-11.157-4.626c-8.704,0-15.783,7.076-15.787,15.774c-0.001,2.981,0.833,5.883,2.413,8.396l0.376,0.597l-1.595,5.821l5.973-1.566l0.577,0.342c2.422,1.438,5.2,2.198,8.032,2.199h0.006c8.698,0,15.777-7.077,15.78-15.776C39.795,19.778,38.156,15.814,35.176,12.832z"/><path fill="#fff" fill-rule="evenodd" d="M19.268,16.045c-0.355-0.79-0.729-0.806-1.068-0.82c-0.277-0.012-0.593-0.011-0.909-0.011c-0.316,0-0.83,0.119-1.265,0.594c-0.435,0.475-1.661,1.622-1.661,3.956c0,2.334,1.7,4.59,1.937,4.906c0.237,0.316,3.282,5.259,8.104,7.161c4.007,1.58,4.823,1.266,5.693,1.187c0.87-0.079,2.807-1.147,3.202-2.255c0.395-1.108,0.395-2.057,0.277-2.255c-0.119-0.198-0.435-0.316-0.909-0.554s-2.807-1.385-3.242-1.543c-0.435-0.158-0.751-0.237-1.068,0.238c-0.316,0.474-1.225,1.543-1.502,1.859c-0.277,0.317-0.554,0.357-1.028,0.119c-0.474-0.238-2.002-0.738-3.815-2.354c-1.41-1.257-2.362-2.81-2.639-3.285c-0.277-0.474-0.03-0.731,0.208-0.968c0.213-0.213,0.474-0.554,0.712-0.831c0.237-0.277,0.316-0.475,0.474-0.791c0.158-0.317,0.079-0.594-0.04-0.831C20.612,19.329,19.69,16.983,19.268,16.045z" clip-rule="evenodd"/></symbol><symbol id="icons-youtube"><path fill="#f44336" d="M42 37a5 5 0 01-5 5H11a5 5 0 01-5-5V11a5 5 0 015-5h26a5 5 0 015 5v26z"/><path fill="#fff" d="M36.499 25.498c-.276-.983-1.089-1.758-2.122-2.021C32.506 23 24 23 24 23s-8.506 0-10.377.478c-1.032.263-1.846 1.037-2.122 2.021C11 27.281 11 31 11 31s0 3.719.501 5.502c.276.983 1.089 1.758 2.122 2.021C15.494 39 24 39 24 39s8.505 0 10.377-.478c1.032-.263 1.846-1.037 2.122-2.021C37 34.719 37 31 37 31s0-3.719-.501-5.502z"/><path fill="#f44336" d="M16.333 37h-1.666V26.655H13V25h5v1.655h-1.667zM23 37h-1.5l-.167-1.132c-.658.711-1.441 1.132-2.05 1.132-.533 0-.908-.231-1.092-.653-.108-.264-.191-.66-.191-1.255V27.5h1.667v7.757c.042.24.217.33.433.33.333 0 .867-.363 1.233-.843V27.5H23V37zm12-4.337v-2.701c0-.777-.192-1.338-.533-1.702-.458-.496-1.117-.76-1.942-.76-.842 0-1.492.264-1.967.76-.358.363-.558.958-.558 1.735v4.593c0 .768.225 1.313.575 1.669.475.495 1.125.743 1.992.743.858 0 1.533-.256 1.983-.785.2-.231.333-.496.392-.785.008-.132.058-.487.058-.908h-1.667v.661c0 .38-.375.694-.833.694s-.833-.314-.833-.694v-2.52H35zm-3.333-3.271c0-.388.375-.694.833-.694s.833.306.833.694v2.123h-1.667v-2.123zm-2.884-.9c-.208-.646-.717-1.001-1.35-1.01-.808-.008-1.142.414-1.767 1.142V25H24v12h1.5l.167-1.034c.525.645 1.208 1.034 1.766 1.034.633 0 1.175-.331 1.383-.977.1-.348.175-.67.183-1.399V30.28c.001-.819-.107-1.44-.216-1.788zm-1.45 5.918c0 .869-.2 1.167-.65 1.167-.258 0-.75-.174-1.017-.439v-5.686c.267-.265.758-.521 1.017-.521.45 0 .65.273.65 1.142v4.337z"/><path fill="#fff" d="M15 9l1.835.001 1.187 5.712h.115l1.128-5.711 1.856-.001L19 16.893V21h-1.823l-.003-3.885L15 9zm6.139 5.082c0-.672.219-1.209.657-1.606.437-.399 1.024-.6 1.764-.601.675 0 1.225.209 1.655.63.429.418.645.96.645 1.622l.003 4.485c0 .742-.209 1.326-.63 1.752-.421.424-.999.636-1.74.636-.714 0-1.281-.221-1.712-.656-.428-.435-.64-1.023-.641-1.76l-.003-4.503.002.001zm1.676 4.664c0 .236.057.423.178.553.115.128.279.193.495.193.221 0 .394-.066.524-.201.129-.129.196-.314.196-.547l-.003-4.731a.588.588 0 00-.201-.459.756.756 0 00-.519-.175.687.687 0 00-.486.176.604.604 0 00-.186.459l.002 4.732zM32 12v9h-1.425l-.227-1.1c-.305.358-.622.63-.953.815-.328.186-.648.285-.958.285-.384 0-.671-.132-.866-.394-.195-.259-.291-.65-.291-1.174L27.276 12h1.653l.004 6.825c0 .204.036.355.106.449.066.09.183.14.335.14.124 0 .278-.062.46-.186a2.22 2.22 0 00.512-.471L30.344 12H32z"/></symbol></svg>